<svg xmlns="http://www.w3.org/2000/svg" viewBox="0 0 1056 1336">
  <style>
    path { fill: #000; }
    @media (prefers-color-scheme: dark) {
      path { fill: #FFF; }
    }
  </style>
  <path d="M428.859 69.4085C441.687 68.782 455.145 69.5933 467.984 70.3618C706.158 84.6194 841.155 311.516 915.243 511.862C922.688 531.548 929.731 551.385 936.366 571.359C962.25 650.296 978.005 732.201 983.251 815.109C989.356 927.46 967.457 1047.33 890.112 1133.26C823.712 1207.04 721.084 1252.29 622.541 1257.61C612.765 1257.91 603.822 1258.42 593.998 1258.2C507.303 1256.3 423.753 1221.94 357.614 1166.44C242.518 1069.86 174.357 930.351 125.404 791.109C59.1552 605.327 20.8145 366.712 158.36 202.429C210.621 140.862 281.332 97.7844 360.005 79.5854C384.432 73.8701 404.13 71.571 428.859 69.4085ZM687.974 1090.54C716.205 1076.74 746.918 1060.29 766.563 1034.85C818.38 971.863 825.649 889.392 818.029 811.043C814.61 776.055 808.922 741.326 801.003 707.075C768.819 568.557 687.949 366.956 575.861 274.619C555.63 257.952 531.238 242.096 506.349 233.493C524.168 313.472 540.699 395.266 557.617 475.524L627.312 804.057L668.411 997.4L681.365 1058.38C683.247 1067.27 686.807 1081.89 687.974 1090.54ZM462.166 1043.24C488.285 1065.62 509.829 1081.24 541.818 1093.86C540.434 1083.46 537.092 1070.53 534.772 1060L524.49 1011.57L490.156 850.375L390.778 381.84C388.189 369.698 362.208 241.455 359.536 238.933C359.456 238.857 359.355 238.807 359.264 238.743C317.817 254.509 271.412 295.775 254.572 337.639C198.478 477.091 247.85 636.867 295.913 771.413C327.624 858.103 391.847 983.725 462.166 1043.24Z"/>
</svg>
