<?xml version="1.0" encoding="utf-8" ?><svg xmlns="http://www.w3.org/2000/svg" xmlns:xlink="http://www.w3.org/1999/xlink" width="292" height="292" viewBox="0 0 292 292"><path transform="scale(0.285156 0.285156)" d="M624.271 203.204C627.463 203.055 630.658 202.981 633.853 202.982C694.493 202.628 746.716 225.446 789.751 267.559C826.571 303.667 852.591 350.102 860.498 401.073C875.61 498.501 813.021 585.751 748.253 651.956C677.405 724.377 586.869 785.355 490.797 818.775C465.377 827.617 433.86 835.858 406.799 835.909C405.647 838.136 404.037 837.433 401.625 837.446C337.201 837.442 289.054 819.638 240.747 777.398C199.463 741.723 172.15 692.576 163.656 638.677C154.333 578.452 170.472 529.815 201.131 478.698C216.022 454.093 233.11 430.888 252.188 409.366C331.758 319.638 456.486 232.497 575.934 208.156C594.417 204.39 605.784 204.318 624.271 203.204ZM331.517 721.766C337.325 724.282 343.838 727.677 349.641 729.651C373.35 735.951 386.432 737.486 410.965 733.975C459.015 727.101 502.105 705.263 543.629 681.17C574.242 662.064 606.365 641.03 633.305 616.71C682.747 572.079 738.523 518.529 759.865 453.831C764.427 440.001 764.034 389.393 751.298 381.864C746.954 386.318 740.381 391.381 735.427 395.374L711.768 414.384L639.928 472.395L410.17 657.584L362.055 695.942C356.532 700.341 334.604 716.99 331.517 721.766ZM269.944 656.694C279.333 650.074 288.432 641.817 297.523 634.641L599.075 390.88C629.419 366.297 660.681 341.811 690.735 316.987C672.173 309.27 659.291 303.535 638.475 303.958C635.534 304.017 635.22 302.638 631.25 303.054C631.063 303.125 630.878 303.199 630.69 303.266C623.145 305.971 614.456 304.539 606.621 305.801C602.536 306.46 598.496 307.873 594.466 308.831C581.837 311.833 569.786 314.599 557.574 319.165C465.628 353.545 367.297 426.372 307.644 504.112C295.075 520.492 283.461 537.42 274.408 556.022C261.957 581.608 257.104 607.894 263.664 635.823C265.331 642.92 268.314 649.645 269.944 656.694Z"/></svg>