<?xml version="1.0" encoding="utf-8" ?><svg xmlns="http://www.w3.org/2000/svg" xmlns:xlink="http://www.w3.org/1999/xlink" width="292" height="292" viewBox="0 0 292 292"><path fill="white" transform="scale(0.285156 0.285156)" d="M0 0L58.9838 0L116.6 0L175.02 0L232.72 0L290.99 0L348.332 0L406.048 0L463.191 0L521.4 0L578.519 0L636.515 0L680.497 0L738.08 0L795.753 0L853.203 0L910.446 0L967.969 0L1024 0L1024 56.4989L1024 113.948L1024 170.049L1024 227.312L1024 283.858L1024 397.618L1024 453.49L1024 510.581L1024 566.782L1024 624.024L1024 680.269L1024 737.491L1024 794.275L1024 851.486L1024 908.018L1024 965.47L1024 1024L968.007 1024L910.219 1024L853.409 1024L795.692 1024L738.091 1024L679.211 1024L578.907 1024L520.888 1024L463.502 1024L405.727 1024L348.533 1024L290.603 1024L232.902 1024L174.515 1024L116.971 1024L58.8056 1024L0 1024L0 965.277L0 908.1L0 851.515L0 794.09L0 737.577L0 680.343L0 624.105L0 566.777L0 510.699L0 453.476L0 397.56L0 340.488L0 284.288L0 226.935L0 170.539L0 113.54L0 57.2028L0 0Z"/><path transform="scale(0.285156 0.285156)" d="M407.092 151.575C426.75 147.584 443.208 146.981 463.033 147.394C477.746 147.746 506.074 151.59 519.845 156.413C590.293 177.739 637.71 225.646 678.408 284.873C691.146 304.591 700.627 321.442 711.272 342.131C715.779 340.432 727.881 340.916 733.383 340.907C735.168 341.021 736.474 340.781 737.73 341.624C738.139 346.208 738.24 355.756 737.958 360.485C737.485 368.438 739.324 389.582 736.064 395.619C739.322 404.64 743.157 413.539 746.476 422.538C750.539 433.553 754.328 444.807 758.034 455.953C763.781 473.827 769.012 493.767 773.562 511.952C776.397 523.816 778.976 535.74 781.296 547.716C781.963 551.282 783.747 564.861 784.783 567.387C786.806 586.219 788.869 603.996 789.798 622.946C794.602 720.958 766.774 812.812 678.676 865C653.211 878.206 630.457 887.782 601.984 893.334C593.624 894.965 585.247 895.645 576.833 896.767C558.43 898.2 539.932 897.847 521.597 895.712C498.69 891.888 485.967 888.861 464.344 880.233C396.538 851.611 350.606 796.936 312.707 735.898C292.055 701.762 272.191 658.006 258.427 620.561C248.696 594.03 240.158 567.078 232.837 539.784C230.381 530.269 228.34 519.829 226.058 510.154C222.515 494.006 219.373 470.229 217.655 454.003C216.517 440.323 215.687 428.563 215.359 414.86C215.461 388.273 216.855 368.361 221.06 342.259C224.342 327.549 226.861 316.647 231.876 302.491C253.554 241.304 294.899 196.934 352.985 168.925C369.909 160.548 388.656 155.297 407.092 151.575Z"/><path fill="#ECEBEB" transform="scale(0.285156 0.285156)" d="M733.383 340.907C735.168 341.021 736.474 340.781 737.73 341.624C738.139 346.208 738.24 355.756 737.958 360.485C737.485 368.438 739.324 389.582 736.064 395.619C727.441 378.008 720.576 360.478 711.272 342.131C715.779 340.432 727.881 340.916 733.383 340.907Z"/><path fill="#FBFBFB" transform="scale(0.285156 0.285156)" d="M316.18 398.259C317.008 368.818 319.961 339.725 333.29 312.883C347.147 284.977 371.696 261.103 401.503 251.05C410.997 299.423 421.098 347.674 431.804 395.792C435.221 414.884 439.566 434.458 443.339 453.585C446.834 468.934 449.523 484.564 452.872 499.956C453.524 502.954 454.264 506.185 454.78 509.201L478.341 623.785C481.668 642.584 485.471 661.295 489.748 679.9C493.632 697.52 497.258 715.197 500.623 732.923C505.29 753.706 509.427 774.604 513.032 795.597C500.351 790.212 490.257 785.165 479.115 776.945C431.338 741.695 394.279 678.702 371.155 625.004C362.707 606.182 355.172 586.963 348.577 567.414C345.432 559.989 342.178 548.098 339.866 540.272C331.252 512.061 324.711 483.258 320.295 454.094C317.786 435.641 315.907 416.913 316.18 398.259Z"/><path fill="#ECEBEB" transform="scale(0.285156 0.285156)" d="M316.18 398.259C317.008 368.818 319.961 339.725 333.29 312.883C347.147 284.977 371.696 261.103 401.503 251.05C410.997 299.423 421.098 347.674 431.804 395.792C427.45 397.992 411.619 397.463 405.957 397.489L405.877 340.547L348.403 340.611L348.397 377.376C348.394 383.393 348.164 391.607 348.503 397.428C343.043 397.388 320.398 396.401 316.808 397.189L316.18 398.259Z"/><path fill="#ECEBEB" transform="scale(0.285156 0.285156)" d="M320.295 454.094C329.666 454.07 339.037 453.969 348.407 453.791C348.398 472.09 347.953 492.431 348.525 510.577C364.973 511.162 389.02 511.079 405.568 510.564C406.045 515.53 405.483 523.241 405.5 528.445C405.528 536.879 405.461 545.306 405.667 553.755C405.774 558.128 405.17 562.634 405.867 566.971C393.164 566.753 380.46 566.662 367.755 566.699C364.47 566.692 350.587 566.007 348.577 567.414C345.432 559.989 342.178 548.098 339.866 540.272C331.252 512.061 324.711 483.258 320.295 454.094Z"/><path fill="#ECEBEB" transform="scale(0.285156 0.285156)" d="M348.503 397.428C366.608 398.146 387.454 397.588 405.757 397.516C405.558 415.794 405.481 435.23 405.675 453.51C386.61 453.436 367.544 453.46 348.479 453.58C348.493 435.21 348.861 415.696 348.503 397.428Z"/><path fill="#ECEBEB" transform="scale(0.285156 0.285156)" d="M443.339 453.585C446.834 468.934 449.523 484.564 452.872 499.956C453.524 502.954 454.264 506.185 454.78 509.201C450.567 511.241 413.777 510.222 405.987 510.341C406.268 491.832 405.973 472.534 405.964 453.959C416.673 453.98 431.066 453.929 442.165 454.259C442.556 454.034 442.948 453.81 443.339 453.585Z"/><path fill="#ECEBEB" transform="scale(0.285156 0.285156)" d="M478.341 623.785C481.668 642.584 485.471 661.295 489.748 679.9C481.151 680.579 472.194 680.482 463.548 680.484C464.333 664.025 463.542 640.979 463.467 624.02C468.426 624.101 473.387 624.023 478.341 623.785Z"/><path fill="#FBFBFB" transform="scale(0.285156 0.285156)" d="M665.908 509.064C671.752 527.961 676.587 547.156 680.391 566.567C690.576 620.489 695.867 689.158 668.777 739.2C659.866 754.815 651.23 765.236 637.083 776.3C626.135 784.694 616.951 789.157 604.25 793.933C600.065 776.457 596.462 755.924 592.729 738.052C589.055 719.141 585.248 700.255 581.308 681.398L558.123 569.415C553.803 550.856 549.889 529.885 546.099 511.163C549.138 510.421 573.032 510.704 578.532 510.505L616.999 510.47C622.635 510.47 631.101 510.201 636.558 510.526C642.657 511.538 656.779 510.916 663.318 510.465C665.182 510.336 665.028 510.218 665.908 509.064Z"/><path fill="#ECEBEB" transform="scale(0.285156 0.285156)" d="M581.308 681.398C584.936 680.675 588.649 680.773 592.332 680.746C606.963 680.638 621.624 681.176 636.245 680.485C636.231 698.678 635.721 719.152 636.179 737.131C629.303 737.181 596.695 736.576 592.729 738.052C589.055 719.141 585.248 700.255 581.308 681.398Z"/><path fill="#ECEBEB" transform="scale(0.285156 0.285156)" d="M665.908 509.064C671.752 527.961 676.587 547.156 680.391 566.567C676.036 567.293 666.114 567.045 661.445 566.964C652.955 566.815 645.016 566.786 636.487 566.998L636.558 510.526C642.657 511.538 656.779 510.916 663.318 510.465C665.182 510.336 665.028 510.218 665.908 509.064Z"/><path fill="#ECEBEB" transform="scale(0.285156 0.285156)" d="M578.532 510.505C578.438 529.002 578.236 548.46 578.537 566.929C573.968 566.889 562.647 566.326 558.849 567.88C558.326 568.708 558.304 568.52 558.123 569.415C553.803 550.856 549.889 529.885 546.099 511.163C549.138 510.421 573.032 510.704 578.532 510.505Z"/><path fill="#ECEBEB" transform="scale(0.285156 0.285156)" d="M636.494 737.458C643.434 737.556 663.898 736.442 668.777 739.2C659.866 754.815 651.23 765.236 637.083 776.3C635.961 769.796 636.475 745.445 636.494 737.458Z"/><path fill="#ECEBEB" transform="scale(0.285156 0.285156)" d="M578.877 567.197C595.593 567.733 619.558 567.647 636.246 567.029C636.249 585.787 635.941 605.055 636.273 623.747L578.771 623.702L578.877 567.197Z"/><path fill="#ECEBEB" transform="scale(0.285156 0.285156)" d="M492.031 249.155C503.579 253.739 512.791 257.715 523.075 265.121C563.013 289.728 603.908 353.94 623.131 395.984C639.246 430.261 655.733 472.567 665.908 509.064C665.028 510.218 665.182 510.336 663.318 510.465C656.779 510.916 642.657 511.538 636.558 510.526C631.101 510.201 622.635 510.47 616.999 510.47L578.532 510.505C573.032 510.704 549.138 510.421 546.099 511.163C541.911 492.216 538.107 472.912 534.149 453.889C526.612 416.389 518.816 378.942 510.761 341.55C506.664 324.692 502.426 301.979 499.224 284.766C497.446 273.584 494.056 260.97 492.031 249.155Z"/><path fill="#FBFBFB" transform="scale(0.285156 0.285156)" d="M578.538 397.525C587.068 397.473 616.549 398.246 623.131 395.984C639.246 430.261 655.733 472.567 665.908 509.064C665.028 510.218 665.182 510.336 663.318 510.465C656.779 510.916 642.657 511.538 636.558 510.526C631.101 510.201 622.635 510.47 616.999 510.47L578.532 510.505C573.032 510.704 549.138 510.421 546.099 511.163C541.911 492.216 538.107 472.912 534.149 453.889C535.535 453.071 573.5 453.575 578.56 453.59C578.273 435.154 578.538 416.018 578.538 397.525Z"/><path fill="#ECEBEB" transform="scale(0.285156 0.285156)" d="M578.824 453.968C597.967 454.079 617.11 454.072 636.252 453.947C636.003 469.692 636.467 485.506 636.212 501.262C636.164 504.234 636.268 507.573 636.558 510.526C631.101 510.201 622.635 510.47 616.999 510.47L578.532 510.505C579.027 504.03 578.837 495.909 578.832 489.252L578.824 453.968Z"/><path fill="#FBFBFB" transform="scale(0.285156 0.285156)" d="M499.224 284.766C506.67 283.639 513.479 283.806 520.954 283.96C521.583 288.953 521.291 299.152 521.284 304.599L521.208 341.013C517.475 341.055 514.465 341.025 510.761 341.55C506.664 324.692 502.426 301.979 499.224 284.766Z"/><path fill="#FBFBFB" transform="scale(0.285156 0.285156)" d="M784.783 567.387L785.084 566.915C786.056 567.032 786.822 567.04 787.808 567.078C790.564 567.671 792.71 567.532 795.5 567.5C795.504 573.951 795.055 591.308 795.674 596.892C796.135 587.313 795.889 576.597 795.86 566.926C814.813 566.924 834.324 567.16 853.232 566.831L853.156 606.693C853.155 609.71 852.931 621.948 853.461 624.032C869.878 624.607 894.038 624.501 910.513 624.025C928.927 623.387 949.303 623.725 967.867 623.747C967.124 607.529 967.582 583.348 967.99 566.976C986.659 566.661 1005.33 566.596 1024 566.782L1024 624.024L1024 680.269L1024 737.491L1024 794.275L1024 851.486L1024 908.018L1024 965.47L1024 1024L968.007 1024L910.219 1024L853.409 1024L795.692 1024L738.091 1024L679.211 1024C680.016 1005.62 679.435 983.733 679.341 965.184C698.625 965.376 718.523 965.031 737.907 965.044C737.364 959.242 737.658 949.726 737.709 943.718L737.987 908.593C718.619 908.684 699.25 908.664 679.882 908.533C679.938 901.319 681.023 868.787 678.676 865C766.774 812.812 794.602 720.958 789.798 622.946C788.869 603.996 786.806 586.219 784.783 567.387Z"/><path fill="#ECEBEB" transform="scale(0.285156 0.285156)" d="M737.983 965.349C755.839 965.718 777.998 965.762 795.811 965.178C795.533 984.784 795.494 1004.39 795.692 1024L738.091 1024L737.983 965.349Z"/><path fill="#ECEBEB" transform="scale(0.285156 0.285156)" d="M853.226 965.206C871.357 965.796 892.352 965.544 910.517 965.179C910.558 984.787 910.459 1004.39 910.219 1024L853.409 1024C853.365 1004.97 853.762 984.063 853.226 965.206Z"/><path fill="#ECEBEB" transform="scale(0.285156 0.285156)" d="M967.982 965.233C985.908 965.863 1005.92 965.464 1024 965.47L1024 1024L968.007 1024L967.982 965.233Z"/><path fill="#ECEBEB" transform="scale(0.285156 0.285156)" d="M910.513 680.423C928.36 681.458 949.782 680.445 967.889 680.568C967.867 685.913 967.909 736.556 967.478 737.327C948.516 737.192 929.552 737.179 910.59 737.288C910.786 719.569 911.22 697.932 910.513 680.423Z"/><path fill="#ECEBEB" transform="scale(0.285156 0.285156)" d="M910.513 624.025L910.353 660.552C910.333 665.913 910.046 675.323 910.513 680.423C904.836 680.101 896.388 680.401 890.502 680.42L853.559 680.49C853.14 675.977 853.423 666.847 853.441 661.914C853.545 649.287 853.552 636.659 853.461 624.032C869.878 624.607 894.038 624.501 910.513 624.025Z"/><path fill="#ECEBEB" transform="scale(0.285156 0.285156)" d="M967.966 737.449C986.476 737.71 1005.45 737.494 1024 737.491L1024 794.275C1005.33 794.402 986.659 794.427 967.988 794.348L967.966 737.449Z"/><path fill="#ECEBEB" transform="scale(0.285156 0.285156)" d="M967.967 851.286C985.472 852.007 1006.19 851.459 1024 851.486L1024 908.018C1005.49 908.093 986.451 908.395 967.981 908.117L967.967 851.286Z"/><path fill="#ECEBEB" transform="scale(0.285156 0.285156)" d="M967.971 623.934C986.541 624.179 1005.41 624.029 1024 624.024L1024 680.269L967.991 680.479L967.971 623.934Z"/><path fill="#ECEBEB" transform="scale(0.285156 0.285156)" d="M738.212 851.572C757.324 851.772 776.862 851.621 795.973 851.524L795.752 888.041C795.72 893.192 795.397 902.978 795.951 907.769C793.537 908.26 781.484 908.044 778.25 908.04L738.168 908.033C738.741 889.628 737.595 870.058 738.212 851.572Z"/><path fill="#ECEBEB" transform="scale(0.285156 0.285156)" d="M857.522 851.446C875.182 851.546 892.843 851.532 910.503 851.405L910.487 908.271C891.468 908.026 871.999 908.567 853.116 908.178C853.196 890.675 853.748 868.872 853.095 851.557L857.522 851.446Z"/><path fill="#ECEBEB" transform="scale(0.285156 0.285156)" d="M853.391 737.465C871.361 738.023 892.397 737.871 910.452 737.503C910.327 756.468 910.349 775.435 910.515 794.4C893.521 793.63 870.805 794.251 853.594 794.508C853.139 792.52 853.346 779.948 853.361 777.029C853.526 763.841 853.536 750.652 853.391 737.465Z"/><path fill="#ECEBEB" transform="scale(0.285156 0.285156)" d="M910.515 794.4C929.501 794.835 948.698 794.262 967.686 794.501L967.676 830.071C967.659 835.432 967.349 846.069 967.956 851.139C948.921 851.109 929.677 850.932 910.658 851.117C910.926 833.385 911.017 812.021 910.515 794.4Z"/><path fill="#ECEBEB" transform="scale(0.285156 0.285156)" d="M910.639 908.439C929.258 908.57 949.32 908.759 967.855 908.258C967.968 925.587 967.045 948.477 968.005 965.025L910.608 965.022C911.391 947.546 910.859 926.14 910.639 908.439Z"/><path fill="#ECEBEB" transform="scale(0.285156 0.285156)" d="M796.008 908.523C814.631 908.523 834.547 908.872 853.063 908.243L853.053 965.071C834.185 965.047 814.836 965.308 796.023 965.059L796.008 908.523Z"/><path fill="#ECEBEB" transform="scale(0.285156 0.285156)" d="M796.133 794.517C814.305 794.518 834.941 794.017 852.944 794.504C853.156 813.28 853.002 832.246 852.977 851.036C836.587 850.183 813.11 850.915 796.15 850.932L796.133 794.517Z"/><path fill="#ECEBEB" transform="scale(0.285156 0.285156)" d="M796.106 681.086C808.714 680.937 821.323 680.877 833.932 680.907C840.141 680.873 846.991 680.508 853.09 680.776C852.937 699.527 852.928 718.278 853.061 737.03C836.322 737.719 813.515 736.983 796.181 736.98C796.346 718.472 796.132 699.623 796.106 681.086Z"/><path fill="#FBFBFB" transform="scale(0.285156 0.285156)" d="M290.859 113.779C309.706 114.267 329.583 113.765 348.539 113.828C348.571 123.031 347.636 164.14 349.821 168.954L350.718 169.236C351.706 168.714 351.885 168.766 352.985 168.925C294.899 196.934 253.554 241.304 231.876 302.491C226.861 316.647 224.342 327.549 221.06 342.259C216.17 340.165 182.76 341.049 174.973 341.039L174.38 340.515C174.209 322.272 175.056 301.969 174.368 283.991L174.937 283.793L174.857 312.353C174.845 315.856 174.645 325.698 175.304 328.746C175.91 314.954 175.503 298.491 175.5 284.5L233.5 284.5L233.5 227.5C244.738 227.486 258.981 227.954 269.953 227.293C268.508 227.006 260.807 227.126 258.75 227.124L232.859 227.116L232.785 170.283C250.845 170.779 272.632 170.587 290.734 170.231L290.859 113.779Z"/><path fill="#ECEBEB" transform="scale(0.285156 0.285156)" d="M576.833 896.767C585.247 895.645 593.624 894.965 601.984 893.334C630.457 887.782 653.211 878.206 678.676 865C681.023 868.787 679.938 901.319 679.882 908.533C699.25 908.664 718.619 908.684 737.987 908.593L737.709 943.718C737.658 949.726 737.364 959.242 737.907 965.044C718.523 965.031 698.625 965.376 679.341 965.184C679.435 983.733 680.016 1005.62 679.211 1024L578.907 1024L578.92 965.366C600.123 966.132 621.996 965.046 643.27 965.443C654.908 965.659 667.527 965.679 679.135 965.128C678.843 954.624 678.966 943.677 678.907 933.139C678.865 925.795 678.612 915.577 679.451 908.475C646.418 907.867 612.092 908.46 578.886 908.26C578.854 904.973 579.447 900.293 578.581 897.35L576.833 896.767Z"/><path fill="#FBFBFB" transform="scale(0.285156 0.285156)" d="M258.427 620.561C272.191 658.006 292.055 701.762 312.707 735.898C305.736 738.064 298.954 737.268 291.788 737.658C290.344 737.737 290.647 740.786 290.595 742.015C290.566 740.364 290.689 739.395 290.001 737.887C286.453 737.356 275.159 737.654 271.093 737.667C258.391 737.759 245.689 737.746 232.987 737.629C227.085 737.626 176.76 737.943 175.07 737.161L174.991 701.174C174.98 695.437 174.718 686.303 175.144 680.804L176.287 680.576C182.31 680.175 190.501 680.417 196.677 680.412L232.829 680.369C232.95 661.57 232.676 642.709 232.924 623.911C238.832 623.639 252.112 624.867 256.908 623.282C258.412 621.863 257.868 622.706 258.427 620.561Z"/><path fill="#ECEBEB" transform="scale(0.285156 0.285156)" d="M175.07 737.161L174.991 701.174C174.98 695.437 174.718 686.303 175.144 680.804L176.287 680.576C180.748 681.303 192.08 681.013 197.058 681.001C208.866 681.001 220.674 680.926 232.482 680.778C232.441 699.172 232.135 718.896 232.561 737.239C219.284 737.092 206.006 737.012 192.727 737C189.572 736.999 177.743 736.783 175.07 737.161Z"/><path fill="#ECEBEB" transform="scale(0.285156 0.285156)" d="M521.155 113.894C539.648 114.174 560.027 114.219 578.523 113.867L578.471 170.512L616.32 170.498C622.128 170.493 630.86 170.725 636.386 170.348C635.561 188.442 637.281 209.335 635.463 227.224L636.201 227.964L637.209 227.845C647.473 226.697 669.197 227.31 680.514 227.271C680.505 237.927 681.979 276.466 678.689 284.178C678.591 284.408 678.502 284.641 678.408 284.873C637.71 225.646 590.293 177.739 519.845 156.413C522.281 152.358 521.423 120.173 521.155 113.894Z"/><path fill="#ECEBEB" transform="scale(0.285156 0.285156)" d="M738.022 227.396C744.84 227.607 794.147 226.765 795.932 227.788C794.902 237.371 795.342 263.472 795.486 274.224C795.767 295.186 794.721 319.76 795.595 340.441L738.489 340.5L738.55 301.112C738.554 295.267 738.818 283.319 738.059 277.89L738.022 227.396Z"/><path fill="#FBFBFB" transform="scale(0.285156 0.285156)" d="M795.595 340.441C794.721 319.76 795.767 295.186 795.486 274.224C795.342 263.472 794.902 237.371 795.932 227.788C796.321 236.14 796.071 245.87 796.051 254.307L795.958 308.916C795.951 318.64 795.684 330.44 796.148 340.039C797.064 340.732 796.619 340.531 797.406 340.784L796.404 341.492C795.835 345.39 796.121 356.072 796.126 360.384L796.082 397.467C796.062 416.053 795.599 435.229 795.747 453.658C790.435 453.691 760.895 452.969 758.769 455.016C758.418 455.354 758.294 455.572 758.034 455.953C754.328 444.807 750.539 433.553 746.476 422.538C743.157 413.539 739.322 404.64 736.064 395.619C739.324 389.582 737.485 368.438 737.958 360.485C738.24 355.756 738.139 346.208 737.73 341.624C736.474 340.781 735.168 341.021 733.383 340.907C734.724 340.768 735.961 340.552 737.287 340.331C738.722 338.621 737.674 285.573 738.059 277.89C738.818 283.319 738.554 295.267 738.55 301.112L738.489 340.5L795.595 340.441Z"/><path fill="#ECEBEB" transform="scale(0.285156 0.285156)" d="M0 965.277C18.6936 965.279 40.4782 965.826 58.9229 965.082C58.589 984.023 58.5042 1005.08 58.8056 1024L0 1024L0 965.277Z"/><path fill="#ECEBEB" transform="scale(0.285156 0.285156)" d="M116.868 965.117C133.922 965.926 157.695 965.576 174.866 965.196C174.294 984.443 174.551 1004.68 174.515 1024L116.971 1024C116.994 1004.59 117.287 984.468 116.868 965.117Z"/><path fill="#FBFBFB" transform="scale(0.285156 0.285156)" d="M0 680.343C18.7348 680.357 40.5012 679.782 59.0078 680.432C59.0156 698.295 59.6345 719.865 58.9941 737.4C40.3539 738.018 18.7721 737.584 0 737.577L0 680.343Z"/><path fill="#ECEBEB" transform="scale(0.285156 0.285156)" d="M232.888 965.11C249.446 965.913 273.947 965.639 290.599 965.149C290.479 984.766 290.481 1004.38 290.603 1024L232.902 1024C233.05 1004.74 233.29 984.302 232.888 965.11Z"/><path fill="#ECEBEB" transform="scale(0.285156 0.285156)" d="M463.422 965.131C481.348 965.983 502.861 965.492 521.026 965.339L520.888 1024L463.502 1024C463.528 1004.73 463.857 984.324 463.422 965.131Z"/><path fill="#FBFBFB" transform="scale(0.285156 0.285156)" d="M0 0L58.9838 0L58.9892 37.7753C58.9892 43.0562 59.2737 51.8315 58.9249 56.8924C39.6642 57.5515 19.4865 56.7523 0 57.2028L0 0Z"/><path fill="#ECEBEB" transform="scale(0.285156 0.285156)" d="M348.564 965.211C366.475 965.534 387.976 965.668 405.913 965.129C405.691 984.752 405.629 1004.38 405.727 1024L348.533 1024C348.549 1004.67 348.886 984.428 348.564 965.211Z"/><path fill="#ECEBEB" transform="scale(0.285156 0.285156)" d="M58.9941 737.4C58.7763 755.383 58.3815 776.374 58.996 794.253C39.5549 794.302 19.4067 794.506 0 794.09L0 737.577C18.7721 737.584 40.3539 738.018 58.9941 737.4Z"/><path fill="#ECEBEB" transform="scale(0.285156 0.285156)" d="M0 851.515C19.4969 851.504 39.5073 851.732 58.9607 851.435L58.7085 887.088C58.677 893.461 58.4121 901.983 58.9496 908.193C39.6176 908.043 19.1396 908.514 0 908.1L0 851.515Z"/><path fill="#ECEBEB" transform="scale(0.285156 0.285156)" d="M0 57.2028C19.4865 56.7523 39.6642 57.5515 58.9249 56.8924L58.6668 90.994C58.6242 97.8207 58.2761 106.917 58.8816 113.604L0 113.54L0 57.2028Z"/><path fill="#ECEBEB" transform="scale(0.285156 0.285156)" d="M3.55271e-15 624.105C19.6022 624.183 39.2046 624.146 58.8063 623.994C58.7705 641.449 58.2062 663.314 59.0078 680.432C40.5012 679.782 18.7348 680.357 0 680.343L0 624.105L3.55271e-15 624.105Z"/><path fill="#ECEBEB" transform="scale(0.285156 0.285156)" d="M0 284.288C18.5644 284.196 40.9044 284.898 58.9742 284.044C58.7761 295.953 58.6893 307.864 58.7137 319.774C58.7014 325.967 58.4219 334.62 58.9822 340.615C39.7573 340.146 19.3158 340.488 0 340.488L0 284.288Z"/><path fill="#ECEBEB" transform="scale(0.285156 0.285156)" d="M0 170.539L58.723 170.502L58.5271 207.136C58.5027 211.707 58.2253 222.875 58.9066 227.068C53.5717 226.699 44.6473 226.953 38.9916 226.949L0 226.935L0 170.539Z"/><path fill="#ECEBEB" transform="scale(0.285156 0.285156)" d="M0 510.699C19.4294 510.166 39.2386 510.936 58.6785 510.571L58.6148 546.037C58.606 551.873 58.3189 561.428 58.9979 566.957C40.1717 566.362 18.8953 566.572 0 566.777L0 510.699Z"/><path fill="#ECEBEB" transform="scale(0.285156 0.285156)" d="M0 397.56L58.7324 397.501L58.5731 433.446C58.5683 439.315 58.3387 447.846 58.8482 453.578L0 453.476L0 397.56Z"/><path fill="#ECEBEB" transform="scale(0.285156 0.285156)" d="M738.08 0L795.753 0C796.439 18.5995 795.218 38.1328 795.959 56.5895C776.674 56.3766 757.387 56.4907 738.106 56.9317C738.376 38.3205 738.055 18.7059 738.08 0Z"/><path fill="#ECEBEB" transform="scale(0.285156 0.285156)" d="M174.992 567.054C193.632 567.46 214.333 567.321 232.976 566.994C232.444 585.962 232.426 604.942 232.924 623.911L174.972 623.94L174.992 567.054Z"/><path fill="#ECEBEB" transform="scale(0.285156 0.285156)" d="M175.02 0L232.72 0C233.419 18.3372 231.916 38.5754 232.85 56.7118C213.571 56.5117 194.291 56.5399 175.014 56.7963L175.02 0Z"/><path fill="#ECEBEB" transform="scale(0.285156 0.285156)" d="M174.944 227.047C191.038 227.734 216.532 227.893 232.729 227.197C232.659 239.54 232.661 251.885 232.735 264.228C232.76 270.116 233.056 277.983 232.759 283.689C221.963 284.274 209.406 284.007 198.5 284.021C192.399 284.03 180.683 284.339 174.937 283.793C175.269 265.1 174.987 245.785 174.944 227.047Z"/><path fill="#ECEBEB" transform="scale(0.285156 0.285156)" d="M232.987 737.629C245.689 737.746 258.391 737.759 271.093 737.667C275.159 737.654 286.453 737.356 290.001 737.887C290.689 739.395 290.566 740.364 290.595 742.015C290.396 757.989 290.017 778.647 290.654 794.447L232.905 794.45C233.51 776.441 233.005 755.835 232.987 737.629Z"/><path fill="#ECEBEB" transform="scale(0.285156 0.285156)" d="M58.9066 227.068C74.7142 227.778 100.816 227.605 116.737 227.089C116.541 245.941 116.514 264.795 116.656 283.647C112.982 284.168 103.123 283.88 98.8206 283.9L58.9907 283.997C59.02 265.405 59.3975 245.561 58.9066 227.068Z"/><path fill="#ECEBEB" transform="scale(0.285156 0.285156)" d="M58.9979 566.957C78.2221 567.163 97.448 567.172 116.672 566.985C116.625 584.341 115.911 606.771 116.65 623.776C97.4376 623.646 78.2244 623.686 59.0127 623.896C59.0161 605.117 59.2901 585.678 58.9979 566.957Z"/><path fill="#ECEBEB" transform="scale(0.285156 0.285156)" d="M174.974 794.449L232.905 794.45C232.293 803.107 232.582 814.452 232.58 823.21C232.578 831.733 232.287 843.035 232.959 851.295C214.349 850.728 193.815 851.075 175.031 851C175.265 832.394 175.092 813.065 174.974 794.449Z"/><path fill="#ECEBEB" transform="scale(0.285156 0.285156)" d="M174.954 908.475C194.247 908.537 213.541 908.495 232.834 908.35L232.584 944.613C232.567 949.958 232.297 960.297 232.888 965.11C214.152 964.593 193.849 964.996 174.998 965.018C175.085 946.171 175.07 927.323 174.954 908.475Z"/><path fill="#ECEBEB" transform="scale(0.285156 0.285156)" d="M59.0078 680.432C76.6058 681.014 99.0148 680.94 116.611 680.512C116.562 698.626 116.032 719.383 116.603 737.294C98.0646 737.257 77.3381 736.786 58.9941 737.4C59.6345 719.865 59.0156 698.295 59.0078 680.432Z"/><path fill="#ECEBEB" transform="scale(0.285156 0.285156)" d="M290.99 0L348.332 0C348.648 18.6429 348.437 37.9472 348.48 56.6422C329.289 56.4844 310.097 56.5685 290.908 56.8943C290.996 37.9294 290.687 18.9524 290.99 0Z"/><path fill="#ECEBEB" transform="scale(0.285156 0.285156)" d="M58.9838 0L116.6 0L116.641 56.5845C98.2196 56.5602 77.2347 56.1242 58.9249 56.8924C59.2737 51.8315 58.9892 43.0562 58.9892 37.7753L58.9838 0Z"/><path fill="#ECEBEB" transform="scale(0.285156 0.285156)" d="M58.9822 340.615C75.6519 341.479 99.7351 341.059 116.734 340.804L116.597 377.184C116.591 383.356 116.363 391.29 116.728 397.359L59.0089 397.382C59.011 379.049 59.4675 358.775 58.9822 340.615Z"/><path fill="#ECEBEB" transform="scale(0.285156 0.285156)" d="M59.0083 908.375C77.5695 908.612 98.0682 908.748 116.615 908.331L116.503 946.253C116.505 950.439 116.303 961.313 116.868 965.117C98.072 964.635 77.8989 964.98 59.0034 965.02C59.0167 946.26 59.239 927.101 59.0083 908.375Z"/><path fill="#ECEBEB" transform="scale(0.285156 0.285156)" d="M116.916 284.008L174.368 283.991C175.056 301.969 174.209 322.272 174.38 340.515L116.934 340.673L116.916 284.008Z"/><path fill="#ECEBEB" transform="scale(0.285156 0.285156)" d="M406.048 0L463.191 0C464.366 17.5169 462.642 38.5256 463.423 56.552L405.994 56.7113L406.048 0Z"/><path fill="#ECEBEB" transform="scale(0.285156 0.285156)" d="M578.781 56.9831L636.267 56.9516C636.077 72.701 636.255 88.5139 636.227 104.269C636.222 107.147 636.151 110.726 636.491 113.534C617.606 113.407 597.494 113.236 578.641 113.578C579.215 95.3912 578.793 75.3096 578.781 56.9831Z"/><path fill="#ECEBEB" transform="scale(0.285156 0.285156)" d="M853.203 0L910.446 0L910.5 56.6004C891.342 56.4606 872.182 56.5229 853.026 56.7874L853.203 0Z"/><path fill="#ECEBEB" transform="scale(0.285156 0.285156)" d="M521.4 0L578.519 0L578.54 56.7636C559.419 56.4976 540.295 56.5081 521.174 56.7952C521.565 50.7469 521.319 42.1976 521.324 35.9988L521.4 0Z"/><path fill="#ECEBEB" transform="scale(0.285156 0.285156)" d="M910.633 567.202C927.215 567.854 951.191 567.287 967.99 566.976C967.582 583.348 967.124 607.529 967.867 623.747C949.303 623.725 928.927 623.387 910.513 624.025C911.254 606.534 910.842 584.855 910.633 567.202Z"/><path fill="#ECEBEB" transform="scale(0.285156 0.285156)" d="M348.611 56.9897L386.92 56.9923C392.337 56.9917 400.73 56.7153 405.955 57.0512C405.84 69.0347 405.797 81.0188 405.828 93.0028C405.811 98.6824 405.464 108.224 405.85 113.61C386.997 113.532 367.359 113.344 348.539 113.828L348.611 56.9897Z"/><path fill="#ECEBEB" transform="scale(0.285156 0.285156)" d="M406.335 908.47L463.148 908.451L463.206 944.894C463.22 950.571 462.979 959.685 463.422 965.131C444.504 964.6 424.99 965.265 406.012 965.014C406.003 959.378 405.594 909.962 406.335 908.47Z"/><path fill="#ECEBEB" transform="scale(0.285156 0.285156)" d="M910.575 170.345C929.694 170.518 948.813 170.517 967.931 170.342C967.964 181.603 967.934 192.863 967.842 204.123C967.763 210.311 967.248 221.342 967.978 226.978L910.696 226.976C911.468 210.597 910.725 187.019 910.575 170.345Z"/><path fill="#ECEBEB" transform="scale(0.285156 0.285156)" d="M521.331 908.467C540.384 908.553 559.438 908.53 578.492 908.4C578.486 927.122 578.248 946.337 578.509 965.017L521.36 965.043C521.51 946.185 521.5 927.325 521.331 908.467Z"/><path fill="#ECEBEB" transform="scale(0.285156 0.285156)" d="M910.743 340.829C929.741 341.207 948.781 340.741 967.745 340.951C967.665 356.85 966.968 381.952 967.95 397.375C949.535 397.341 928.781 396.927 910.588 397.52C911.682 380.198 910.346 358.695 910.743 340.829Z"/><path fill="#ECEBEB" transform="scale(0.285156 0.285156)" d="M853.026 397.438C871.779 397.595 891.876 397.854 910.588 397.52C909.803 413.48 910.283 437.228 910.489 453.5C891.334 453.394 872.179 453.432 853.026 453.614L853.026 397.438Z"/><path fill="#ECEBEB" transform="scale(0.285156 0.285156)" d="M797.406 340.784C813.74 341.633 836.266 341.03 852.976 340.996C852.981 359.409 852.61 379.141 853.026 397.438C834.299 397.192 814.861 397.455 796.082 397.467L796.126 360.384C796.121 356.072 795.835 345.39 796.404 341.492L797.406 340.784Z"/><path fill="#ECEBEB" transform="scale(0.285156 0.285156)" d="M967.969 0L1024 0L1024 56.4989L967.987 56.7475L967.969 0Z"/><path fill="#ECEBEB" transform="scale(0.285156 0.285156)" d="M967.978 226.978C984.417 228.075 1007.03 227.127 1024 227.312L1024 283.858L968.084 283.691C967.76 264.996 967.986 245.707 967.978 226.978Z"/><path fill="#ECEBEB" transform="scale(0.285156 0.285156)" d="M967.972 510.488L1024 510.581L1024 566.782C1005.33 566.596 986.659 566.661 967.99 566.976L967.972 510.488Z"/><path fill="#ECEBEB" transform="scale(0.285156 0.285156)" d="M967.99 113.705C984.707 114.629 1006.9 113.968 1024 113.948L1024 170.049C1006.11 170.327 985.821 170.585 968.017 170.131L967.99 113.705Z"/><path fill="#ECEBEB" transform="scale(0.285156 0.285156)" d="M967.957 397.498L1024 397.618L1024 453.49C1005.33 453.405 986.661 453.464 967.992 453.667L967.957 397.498Z"/><path fill="#ECEBEB" transform="scale(0.285156 0.285156)" d="M217.655 454.003C219.373 470.229 222.515 494.006 226.058 510.154C222.124 510.668 212.126 510.485 207.782 510.49L174.978 510.505L174.907 453.563C184.526 454.168 194.363 453.815 204.003 453.919C208.266 453.965 213.53 453.532 217.655 454.003Z"/><path fill="#ECEBEB" transform="scale(0.285156 0.285156)" d="M636.515 0L680.497 0L680.546 56.6771C665.854 56.6296 651.162 56.6669 636.471 56.7891L636.515 0Z"/><path fill="#ECEBEB" transform="scale(0.285156 0.285156)" d="M636.491 113.534C649.038 114.458 667.65 113.915 680.545 113.853C680.496 132.446 680.231 151.723 680.536 170.273C666.019 170.23 650.858 170.055 636.386 170.348C637.27 153.847 636.543 130.534 636.491 113.534Z"/><path fill="#ECEBEB" transform="scale(0.285156 0.285156)" d="M174.973 341.039C182.76 341.049 216.17 340.165 221.06 342.259C216.855 368.361 215.461 388.273 215.359 414.86C214.303 413.377 214.835 399.773 214.868 397.047C202.877 397.755 187.385 397.288 174.975 397.428L174.973 341.039Z"/><path fill="#ECEBEB" transform="scale(0.285156 0.285156)" d="M405.997 113.985L463.349 113.955C463.349 123.869 463.855 135.242 462.926 145.108C462.819 146.244 462.451 146.068 463.033 147.394C443.208 146.981 426.75 147.584 407.092 151.575C405.574 145.011 405.984 121.749 405.997 113.985Z"/><path fill="#ECEBEB" transform="scale(0.285156 0.285156)" d="M464.344 880.233C485.967 888.861 498.69 891.888 521.597 895.712C520.823 899.355 521.007 904.712 521.331 908.467C502.031 908.288 482.729 908.259 463.429 908.38C463.536 902.445 462.752 884.682 464.344 880.233Z"/><path fill="#ECEBEB" transform="scale(0.285156 0.285156)" d="M773.562 511.952C777.288 510.303 790.455 510.815 795.665 510.723L795.682 566.649L787.808 567.078C786.822 567.04 786.056 567.032 785.084 566.915L784.783 567.387C783.747 564.861 781.963 551.282 781.296 547.716C778.976 535.74 776.397 523.816 773.562 511.952Z"/><path fill="#ECEBEB" transform="scale(0.285156 0.285156)" d="M116.874 737.476L174.651 737.509C175.247 755.286 173.596 777.082 174.812 794.257C170.088 794.763 159.923 794.498 154.878 794.496L116.78 794.466C117.142 775.743 116.873 756.256 116.874 737.476Z"/><path fill="#ECEBEB" transform="scale(0.285156 0.285156)" d="M116.894 851.448C135.487 851.806 156.287 851.627 174.899 851.337C174.682 869.177 174.036 890.696 174.829 908.288C156.447 907.663 135.512 908.187 116.907 908.255L116.894 851.448Z"/><path fill="#ECEBEB" transform="scale(0.285156 0.285156)" d="M232.981 851.374C251.093 851.775 272.698 851.814 290.776 851.348C290.279 869.599 290.383 889.714 290.574 907.995C288.619 908.397 276.149 908.225 273.386 908.224C259.924 908.263 246.463 908.225 233.002 908.109L232.981 851.374Z"/><path fill="#ECEBEB" transform="scale(0.285156 0.285156)" d="M116.962 56.9917C136.081 57.2004 155.595 57.0101 174.75 57.0216C174.348 73.7472 174.138 96.8689 174.704 113.53L116.888 113.648C116.817 94.7628 116.842 75.877 116.962 56.9917Z"/><path fill="#ECEBEB" transform="scale(0.285156 0.285156)" d="M59.0066 794.488L116.577 794.417C116.526 812.376 116.007 833.542 116.695 851.275C98.3296 850.615 77.6776 851.324 59.0274 851.197L59.0066 794.488Z"/><path fill="#ECEBEB" transform="scale(0.285156 0.285156)" d="M232.952 56.9375C251.826 57.3401 271.798 56.9974 290.755 56.9828C290.517 74.8857 290.163 95.4905 290.711 113.284C287.245 114.34 240.054 113.528 232.997 113.649L232.952 56.9375Z"/><path fill="#ECEBEB" transform="scale(0.285156 0.285156)" d="M116.857 170.442C135.622 170.819 155.885 170.502 174.687 170.389C174.524 188.114 174.034 209.376 174.72 226.902C155.756 227.259 135.995 226.989 116.969 226.999L116.857 170.442Z"/><path fill="#ECEBEB" transform="scale(0.285156 0.285156)" d="M290.89 908.497L348.472 908.434C348.356 927.306 348.368 946.178 348.507 965.049C329.56 964.766 309.876 965.046 290.849 965.048L290.89 908.497Z"/><path fill="#ECEBEB" transform="scale(0.285156 0.285156)" d="M348.562 851.407C361.617 851.561 374.674 851.57 387.729 851.434C391.539 851.416 402.741 851.049 405.957 851.7C405.489 864.026 405.661 876.23 405.873 888.557C405.979 894.751 405.615 902.318 405.918 908.315L348.472 908.434L348.562 851.407Z"/><path fill="#ECEBEB" transform="scale(0.285156 0.285156)" d="M290.851 794.484C310.009 794.565 329.168 794.536 348.326 794.399C348.65 800.051 348.269 807.525 348.263 813.432C348.256 825.926 348.328 838.42 348.482 850.913C346.762 851.294 334.517 851.178 332.081 851.177L290.996 851.072L290.851 794.484Z"/><path fill="#ECEBEB" transform="scale(0.285156 0.285156)" d="M59.0259 453.96C77.5962 454.291 98.1002 454.167 116.66 453.859C116.668 471.44 115.99 493.119 116.725 510.362C97.6274 510.654 78.1493 510.475 59.0235 510.483L59.0259 453.96Z"/><path fill="#ECEBEB" transform="scale(0.285156 0.285156)" d="M738.021 113.882C756.168 114.371 777.824 114.186 795.988 113.812C795.849 132.554 795.851 151.296 795.994 170.037C776.68 170.166 757.365 170.189 738.05 170.105L738.021 113.882Z"/><path fill="#ECEBEB" transform="scale(0.285156 0.285156)" d="M116.916 624.003C134.115 624.647 157.555 624.425 174.739 624.079C174.613 641.656 173.937 663.233 174.74 680.42L116.858 680.446L116.916 624.003Z"/><path fill="#ECEBEB" transform="scale(0.285156 0.285156)" d="M116.818 510.503L174.642 510.554C174.63 528.626 174.146 549.062 174.786 566.944C155.96 566.325 135.763 566.679 116.829 566.793L116.818 510.503Z"/><path fill="#ECEBEB" transform="scale(0.285156 0.285156)" d="M463.523 56.9642C482.416 57.2857 502.052 56.9901 521.001 56.9649C520.895 75.8174 520.893 94.6704 520.996 113.523L463.539 113.561C464.194 96.364 463.545 74.6275 463.523 56.9642Z"/><path fill="#ECEBEB" transform="scale(0.285156 0.285156)" d="M59.009 113.973C78.2538 114.046 97.499 113.996 116.743 113.825C116.529 130.95 116.035 153.293 116.745 170.173C97.6298 169.996 78.1463 170.195 59.0149 170.279L59.009 113.973Z"/><path fill="#ECEBEB" transform="scale(0.285156 0.285156)" d="M174.979 113.98C194.015 114.273 213.706 113.998 232.793 113.979C232.234 131.773 232.619 151.889 232.735 169.794C230.978 170.25 218.548 170.122 215.673 170.129L175.014 170.133L174.979 113.98Z"/><path fill="#ECEBEB" transform="scale(0.285156 0.285156)" d="M116.844 397.483C136.002 397.71 155.485 397.529 174.667 397.514C174.49 416.172 174.453 434.83 174.557 453.488C155.311 453.422 136.065 453.461 116.82 453.606L116.844 397.483Z"/><path fill="#ECEBEB" transform="scale(0.285156 0.285156)" d="M908.945 227.236L910.081 227.306C910.968 228.872 910.404 278.825 910.123 283.882C891.946 283.441 872.849 283.929 854.543 283.796L853.853 283.684C852.561 280.662 853.216 234.92 853.106 227.199C870.662 227.848 891.248 227.426 908.945 227.236Z"/><path fill="#ECEBEB" transform="scale(0.285156 0.285156)" d="M910.829 56.9946C929.453 57.3588 949.222 56.9882 967.935 56.9544C967.739 75.7499 967.715 94.5469 967.861 113.343C965.619 113.808 953.123 113.578 949.977 113.571L910.614 113.569C911.012 107.572 910.806 98.9253 910.812 92.7334L910.829 56.9946Z"/><path fill="#ECEBEB" transform="scale(0.285156 0.285156)" d="M910.588 453.653C926.185 454.675 951.977 454.151 967.96 453.88C967.775 470.148 966.893 494.83 967.895 510.431C950.772 510.449 927.409 509.822 910.534 510.56C911.167 492.878 910.879 471.337 910.588 453.653Z"/><path fill="#ECEBEB" transform="scale(0.285156 0.285156)" d="M680.715 170.509C699.803 170.6 718.891 170.55 737.978 170.358C737.456 187.618 737.458 209.644 737.883 226.876C735.969 227.305 723.434 227.061 720.484 227.051L680.914 226.999L680.715 170.509Z"/><path fill="#ECEBEB" transform="scale(0.285156 0.285156)" d="M680.827 56.9519C699.622 57.2906 719.162 57.0174 738.014 57.0141C737.966 75.5691 737.489 95.0712 737.993 113.496L680.91 113.531L680.827 56.9519Z"/><path fill="#ECEBEB" transform="scale(0.285156 0.285156)" d="M796.005 170.409C815.008 170.506 834.011 170.488 853.013 170.353L853.023 227.025L796.006 227.048C796.294 208.527 796.131 188.96 796.005 170.409Z"/><path fill="#ECEBEB" transform="scale(0.285156 0.285156)" d="M796.01 57.0141L853.039 56.9349L852.995 113.537C834.234 113.516 814.74 113.235 796.037 113.694C796.126 94.8005 796.117 75.9071 796.01 57.0141Z"/><path fill="#ECEBEB" transform="scale(0.285156 0.285156)" d="M853.067 510.487C870.695 510.973 892.861 511.152 910.534 510.56C909.962 527.858 910.267 549.575 910.492 566.998C891.372 566.843 872.251 566.808 853.13 566.893C853.212 548.091 853.191 529.289 853.067 510.487Z"/><path fill="#ECEBEB" transform="scale(0.285156 0.285156)" d="M795.99 453.868C812.903 454.331 836.144 454.423 852.99 453.769C852.985 472.461 852.713 491.851 853.067 510.487L795.975 510.494L795.99 453.868Z"/><path fill="#ECEBEB" transform="scale(0.285156 0.285156)" d="M853.154 113.761C870.106 114.65 892.992 113.954 910.476 113.923L910.418 170.161C891.311 170.015 872.188 170.309 853.106 170.09C853.483 152.314 853.502 131.487 853.154 113.761Z"/></svg>