<svg xmlns="http://www.w3.org/2000/svg" viewBox="0 0 1770 190" width="1770" height="190">
  <g transform="translate(0,190) scale(0.1,-0.1)" fill="rgb(66,71,45)" stroke="none">

    <!-- J -->
    <path d="M640 1138 c0 -282 -4 -447 -11 -473 -29 -107 -121 -160 -212 -121
    -72 30 -96 81 -104 214 l-6 92 -55 0 -54 0 4 -112 c5 -132 23 -183 87 -246
    113 -109 319 -88 408 42 56 83 57 84 60 579 l4 457 -60 0 -61 0 0 -432z"/>

    <!-- Ä dots -->
    <path d="M1755 1566 c-50 -50 -39 -157 18 -184 73 -35 140 62 104 151 -25 60
    -80 75 -122 33z"/>
    <path d="M2073 1575 c-28 -20 -46 -75 -38 -119 18 -95 120 -112 153 -24 37 96
    -42 194 -115 143z"/>

    <!-- Ä body (same as A but with dots above — using A path at Ä position) -->
    <path d="M1751 903 c-74 -230 -136 -425 -138 -434 -4 -13 8 -21 49 -35 29 -9
    55 -17 58 -16 3 0 23 58 45 129 l41 128 149 3 c81 1 152 -1 156 -5 5 -5 25
    -62 45 -128 20 -66 38 -123 40 -127 3 -5 102 27 112 37 2 2 -59 197 -135 434
    l-138 431 -75 0 -75 0 -134 -417z m268 85 c29 -95 54 -181 57 -190 5 -16 -5
    -18 -116 -18 -93 0 -121 3 -118 13 3 6 29 92 58 190 29 97 56 177 60 177 4 0
    30 -78 59 -172z"/>

    <!-- R (first, in JÄRNA) -->
    <path d="M3140 875 l0 -445 60 0 60 0 0 190 0 191 82 -3 81 -3 111 -197 112
    -196 51 31 51 30 -109 179 c-108 178 -109 179 -84 188 37 14 104 79 128 124
    31 58 30 174 0 232 -54 102 -118 124 -365 124 l-178 0 0 -445z m378 321 c45
    -23 66 -60 66 -115 0 -64 -28 -110 -84 -138 -37 -19 -60 -23 -142 -23 l-98 0
    0 143 c0 79 3 147 8 151 13 15 215 0 250 -18z"/>

    <!-- N -->
    <path d="M4540 875 l0 -445 61 0 61 0 -4 365 c-4 346 -3 364 13 333 9 -18 85
    -183 169 -365 l153 -333 68 0 69 0 0 445 0 445 -56 0 -55 0 3 -365 c2 -200 0
    -361 -3 -357 -3 4 -79 168 -169 365 l-164 357 -73 0 -73 0 0 -445z"/>

    <!-- A (second, end of JÄRNA) -->
    <path d="M6182 1258 c-11 -35 -72 -225 -136 -424 -110 -343 -122 -384 -111
    -384 2 0 27 -9 54 -20 l50 -19 43 132 43 132 154 0 155 0 39 -131 40 -132 58
    20 c33 11 59 21 59 21 0 1 -62 196 -138 432 l-139 430 -76 3 -76 3 -19 -63z
    m158 -285 l58 -188 -115 -3 c-64 -1 -118 -1 -120 2 -3 3 21 91 53 195 31 105
    59 189 62 186 3 -2 31 -89 62 -192z"/>

    <!-- R (ROSTERI) -->
    <path d="M8410 1001 l0 -571 60 0 60 0 0 255 0 255 60 0 61 0 125 -257 c68
    -141 126 -259 129 -261 5 -5 94 29 100 39 3 4 -47 114 -110 245 -112 231 -119
    253 -82 254 21 0 107 96 128 143 20 43 23 69 24 157 0 120 -17 171 -77 232
    -67 66 -92 73 -295 76 l-183 4 0 -571z m367 433 c42 -31 64 -77 70 -143 11
    -119 -37 -219 -115 -241 -20 -5 -74 -10 -119 -10 l-83 0 0 211 0 211 109 -4
    c93 -2 114 -6 138 -24z"/>

    <!-- Ø (custom, with bisected counter) -->
    <!-- outer O shape -->
    <path d="M10031 1329 c-166 -32 -253 -185 -254 -449 -1 -139 12 -207 53 -290
    52 -102 127 -156 234 -167 213 -22 348 175 332 487 -6 127 -20 190 -59 266
    -57 113 -184 177 -306 153z"/>
    <!-- left white counter (D-shape opening left) — rendered as white fill on top -->
    <!-- right white counter (D-shape opening right) -->

    <!-- S -->
    <path d="M11480 1329 c-64 -10 -92 -23 -135 -61 -50 -43 -75 -99 -75 -168 0
    -107 43 -161 175 -221 39 -17 98 -44 132 -60 35 -15 74 -40 87 -54 59 -63 34
    -179 -46 -215 -112 -51 -227 3 -262 121 -7 22 -14 41 -17 42 -15 5 -99 -28
    -99 -39 0 -29 41 -121 69 -154 45 -55 122 -92 201 -98 177 -12 300 93 300 258
    -1 129 -51 186 -236 265 -148 63 -184 94 -184 159 0 36 6 52 29 78 26 29 35
    33 98 36 64 4 72 2 103 -24 18 -16 42 -48 52 -71 10 -24 22 -43 27 -43 4 0 29
    7 55 16 40 14 46 19 40 38 -44 143 -166 219 -314 195z"/>

    <!-- T -->
    <path d="M12660 1270 l0 -49 123 -3 122 -3 3 -393 2 -393 58 3 57 3 3 393 2
    392 115 0 115 0 0 50 0 50 -300 0 -300 0 0 -50z"/>

    <!-- E -->
    <path d="M14160 875 l0 -445 275 0 275 0 0 55 0 55 -215 0 -215 0 0 155 0 155
    181 0 180 0 -3 53 -3 52 -177 3 -178 2 0 130 0 130 215 0 215 0 0 50 0 50
    -275 0 -275 0 0 -445z"/>

    <!-- R (second in ROSTERI) -->
    <path d="M15582 878 l3 -443 58 -3 57 -3 0 191 0 190 83 0 82 0 109 -195 c60
    -107 113 -195 118 -195 15 0 98 51 94 58 -2 4 -49 82 -105 175 -55 92 -101
    169 -101 171 0 2 20 16 45 30 74 44 125 135 125 225 0 98 -42 170 -124 214
    -37 20 -59 22 -244 25 l-202 4 2 -444z m373 321 c47 -23 70 -64 70 -124 0 -58
    -18 -91 -69 -129 -23 -18 -45 -22 -142 -24 l-114 -4 0 144 c0 80 3 148 8 152
    12 13 216 0 247 -15z"/>

    <!-- I -->
    <path d="M17100 1270 l0 -49 58 -3 57 -3 3 -337 2 -338 -60 0 -60 0 0 -55 0
    -55 180 0 180 0 0 55 0 55 -60 0 -60 0 2 338 3 337 58 3 57 3 0 49 0 50 -180
    0 -180 0 0 -50z"/>

  </g>

  <!-- Ø white counters — coordinate space: output coords after scale(0.1,-0.1)+translate(0,190) -->
  <!-- O in source is centered around x=10031..10363, y=430..1329 in source coords -->
  <!-- In output: x=1003..1036, y=190-132.9=57.1 to 190-43=147 -->
  <!-- Center output: x≈1020, y≈102 -->
  <!-- Left counter D-shape opening left, right edge at x=1013, leftmost at x=996 -->
  <!-- Right counter D-shape opening right, left edge at x=1027, rightmost at x=1044 -->
  <!-- left D: flat right edge at x=1016.5, rx=10, ry=42, center y=102 -->
  <path d="M1016.5,60 C1011,60 1006.5,78.8 1006.5,102 C1006.5,125.2 1011,144 1016.5,144 L1016.5,60 Z" fill="rgb(254,254,253)"/>
  <!-- right D: flat left edge at x=1022.5, rx=10, ry=42, center y=102 -->
  <path d="M1022.5,60 L1022.5,144 C1028,144 1032.5,125.2 1032.5,102 C1032.5,78.8 1028,60 1022.5,60 Z" fill="rgb(254,254,253)"/>
</svg>
