<svg xmlns="http://www.w3.org/2000/svg" width="1200" height="630" viewBox="0 0 1200 630">
  <!-- background: JR Grön -->
  <rect width="1200" height="630" fill="#2d4a3e"/>

  <!-- J.Rø logomark, centred, ~320px wide -->
  <!-- original viewBox="6 0 430 224", scale to ~320px wide → scale ≈ 0.744 -->
  <g transform="translate(436, 203) scale(0.744)">
    <path d="M 388.88 201.12 C381.85,203.30 369.00,203.52 362.00,201.57 C342.56,196.15 329.55,179.67 324.29,153.81 C322.13,143.19 321.89,113.86 323.88,103.00 C329.28,73.41 344.92,55.36 368.11,51.94 C382.10,49.88 396.79,54.79 406.91,64.91 C417.91,75.91 424.12,92.46 426.09,116.00 C428.62,146.21 421.84,173.95 408.22,189.10 C402.97,194.94 397.20,198.53 388.88,201.12 ZM 302.14 207.79 C301.60,207.97 297.53,209.87 293.10,212.01 L 285.05 215.90 L 276.96 199.20 C272.52,190.02 261.86,167.99 253.28,150.25 L 237.67 118.00 L 218.02 118.00 L 217.50 200.50 L 198.00 201.07 L 198.00 13.00 L 224.79 13.00 C254.02,13.00 259.43,13.72 268.00,18.74 C273.97,22.24 281.52,30.11 284.41,35.85 C288.68,44.35 290.25,51.75 290.29,63.50 C290.35,87.09 281.64,104.05 264.86,112.99 L 259.12 116.06 L 262.94 124.28 C265.04,128.80 274.95,149.37 284.95,169.98 C294.95,190.59 302.69,207.60 302.14,207.79 ZM 65.50 201.64 C58.01,203.64 45.60,203.31 38.67,200.93 C31.00,198.29 26.51,195.35 20.84,189.28 C11.52,179.28 8.29,169.24 7.35,147.26 L 6.69 132.00 L 27.00 132.00 L 27.02 141.75 C27.06,161.30 29.79,170.78 37.38,177.78 C42.28,182.30 46.96,183.99 54.63,183.99 C69.24,184.01 78.04,173.37 79.99,153.34 C80.52,147.93 80.96,114.14 80.97,78.25 L 81.00 13.00 L 101.13 13.00 L 100.76 87.25 C100.35,169.05 100.58,165.97 93.93,179.13 C88.40,190.09 78.05,198.28 65.50,201.64 ZM 218.00 30.79 L 218.00 100.23 L 234.25 99.82 C252.58,99.34 255.51,98.50 261.36,92.03 C267.26,85.50 269.36,78.34 269.43,64.50 C269.47,57.03 269.01,51.12 268.20,48.83 C265.83,42.15 261.27,37.01 255.18,34.18 C249.95,31.75 248.24,31.51 233.75,31.17 ZM 366.00 72.00 C353.30,72.00 343.00,96.60 343.00,127.00 C343.00,157.40 353.30,182.00 366.00,182.00 L 366.00 72.00 Z M 384.00 72.00 L 384.00 182.00 C396.70,182.00 407.00,157.40 407.00,127.00 C407.00,96.60 396.70,72.00 384.00,72.00 ZM 154.77 183.25 L 154.50 200.50 L 135.00 201.07 L 135.00 166.00 L 155.05 166.00 Z" fill="#c8a96e"/>
  </g>

  <!-- "JÄRNA ROSTERI" wordmark text below mark -->
  <text
    x="600"
    y="500"
    text-anchor="middle"
    font-family="Helvetica Neue, Helvetica, Arial, sans-serif"
    font-size="22"
    font-weight="300"
    letter-spacing="14"
    fill="#c8a96e"
    opacity="0.55"
  >JÄRNA ROSTERI</text>
</svg>
